<svg xmlns="http://www.w3.org/2000/svg" viewBox="0 0 120 32" fill="currentColor" role="img" aria-label="Google">
  <path d="M18.5 16.2c0-1.1-.1-2.2-.3-3.2H9v6h5.3c-.2 1.2-1 2.2-2.1 2.9v2.4h3.4c2-1.8 3.2-4.5 3.2-8.1z"/>
  <path d="M9 25.5c2.8 0 5.2-.9 6.9-2.5l-3.4-2.6c-.9.6-2.1 1-3.5 1-2.7 0-5-1.8-5.8-4.3H0v2.7C1.7 23.3 5.1 25.5 9 25.5z"/>
  <path d="M3.2 17.1c-.2-.6-.3-1.3-.3-2.1s.1-1.5.3-2.1V10.2H0C-.6 11.6-1 13.2-1 15s.4 3.4 1 4.8l3.2-2.7z" transform="translate(1 0)"/>
  <path d="M9 8.4c1.5 0 2.8.5 3.9 1.5l2.9-2.9C14.1 5.2 11.7 4.2 9 4.2 5.1 4.2 1.7 6.4 0 10.2l3.2 2.7c.8-2.5 3.1-4.5 5.8-4.5z"/>
  <text x="34" y="22" font-family="system-ui, -apple-system, sans-serif" font-size="17" font-weight="500" letter-spacing="-0.02em">Google</text>
</svg>
