<svg xmlns="http://www.w3.org/2000/svg" viewBox="0 0 800 283" role="img" aria-label="Google">
  <path fill="#4285F4" d="m 179.7,190.3 -37.3,8.6 c -15.1,2.4 -28.7,4.5 -43.03,4.5 C 27.38,203.4 0,150.4 0,109 0,58.35 38.86,11.4 105.4,11.4 c 14.1,0 27.6,2.09 39.9,5.48 19.5,5.48 28.7,12.26 34.4,16.17 l -21.6,20.61 -9.2,2.08 6.6,-10.44 c -8.9,-8.6 -25.1,-24.51 -55.86,-24.51 -41.22,0 -72.26,31.31 -72.26,76.95 0,49.06 35.48,95.16 92.32,95.16 16.7,0 25.3,-3.3 33.1,-6.5 l 0,-42 -39.3,2.1 20.8,-11.2 55.3,0 -6.8,6.5 c -1.8,1.6 -2,2.1 -2.6,4.2 -0.2,2.3 -0.5,9.9 -0.5,12.5 l 0,31.8 0,0 z"/>
  <path fill="#EA4335" d="m 300.1,177.5 c 6.6,-8.9 8.3,-20 8.3,-30.9 0,-24.5 -11.7,-71.19 -46.2,-71.19 -9.2,0 -18.3,3.61 -25,9.45 -10.9,9.74 -12.8,21.94 -12.8,33.94 0,27.5 13.6,72.9 47.3,72.9 10.8,0 22,-5.3 28.4,-14.2 z M 265.3,200 c -44.3,0 -67.9,-34.5 -67.9,-65.6 0,-36.46 29.8,-67.62 72.1,-67.62 40.8,0 66.4,31.99 66.4,65.62 0,32.9 -25.3,67.6 -70.6,67.6"/>
  <path fill="#FBBC05" d="m 448.1,177.5 c 6.6,-8.9 8.3,-20 8.3,-30.9 0,-24.5 -11.7,-71.19 -46.2,-71.19 -9.2,0 -18.3,3.61 -25,9.45 -10.9,9.74 -12.8,21.94 -12.8,33.94 0,27.5 13.6,72.9 47.3,72.9 10.8,0 22,-5.3 28.4,-14.2 z M 413.3,200 c -44.2,0 -67.9,-34.5 -67.9,-65.6 0,-36.46 29.8,-67.62 72.1,-67.62 40.9,0 66.5,31.99 66.5,65.62 0,32.9 -25.4,67.6 -70.7,67.6"/>
  <path fill="#34A853" d="m 677,196.4 -49.2,0 c 6.4,-8.3 7.5,-9.2 7.5,-14.7 l 0,-45.4 c 0,-21.7 0.3,-52.56 1.1,-81.48 0.3,-14.19 1.4,-32 1.7,-44.8 l -21.7,0 L 637.2,0 677,0 c -8.6,5.021 -11.4,6.683 -12.5,16.42 -2.2,21.42 -2.5,55.37 -2.5,94.88 l 0,64.3 c 0,10.8 1.9,12.5 11.1,13.3 4.8,0.6 9.5,0.8 14.2,1.4 l -10.3,6.1 z"/>
  <path fill="#4285F4" d="m 574.1,151.1 c 6.4,-6.4 6.9,-15.3 6.9,-20.3 0,-20.1 -11.9,-51.23 -35,-51.23 -7.2,0 -15,3.62 -19.5,9.19 -4.7,5.84 -6.1,13.34 -6.1,20.54 0,18.7 10.8,49.6 34.8,49.6 6.9,0 14.4,-3.4 18.9,-7.8 z m -8.1,52.8 c -2.2,-0.2 -3.6,-0.2 -6.4,-0.2 -2.5,0 -17.5,0.5 -29.2,4.4 -6.1,2.2 -23.9,8.9 -23.9,28.7 0,19.7 19.2,33.9 49,33.9 26.7,0 40.8,-12.8 40.8,-30 0,-14.2 -9.1,-21.7 -30.3,-36.8 M 585.8,80.4 c 6.4,5.29 19.7,16.42 19.7,37.6 0,20.6 -11.7,30.3 -23.3,39.5 -3.7,3.6 -7.8,7.5 -7.8,13.6 0,6.1 4.1,9.5 7.2,12 l 10,7.8 c 12.3,10.2 23.4,19.7 23.4,38.9 0,26.2 -25.3,52.6 -73.2,52.6 -40.3,0 -59.8,-19.2 -59.8,-39.8 0,-10 5,-24.2 21.4,-33.9 17.3,-10.6 40.6,-12 53.2,-12.8 -3.9,-5 -8.4,-10.3 -8.4,-19 0,-4.7 1.4,-7.5 2.8,-10.8 -3.1,0.3 -6.1,0.6 -8.9,0.6 -29.5,0 -46.2,-22 -46.2,-43.7 0,-12.8 5.9,-27.02 17.8,-37.31 15.9,-13.07 34.8,-15.3 49.8,-15.3 l 57.3,0 -17.8,10.01 -17.2,0"/>
  <path fill="#EA4335" d="m 759.1,107.4 c 5.3,-2 8.1,-3.6 8.1,-7.52 0,-11.12 -12.5,-23.92 -27.6,-23.92 -11.1,0 -32,8.62 -32,38.64 0,4.8 0.6,9.8 0.9,14.8 l 50.6,-22 z m 26.2,82.9 c -3.1,1.7 -6.2,3.6 -9.2,5 -9.2,4.2 -18.7,5.3 -27,5.3 -8.9,0 -22.8,-0.6 -37,-10.9 -19.8,-13.9 -28.4,-37.8 -28.4,-58.7 0,-43.08 35.1,-64.22 63.7,-64.22 10,0 20.3,2.5 28.7,7.79 13.9,9.17 17.5,21.13 19.4,27.53 l -65.3,26.4 -21.5,1.7 c 7,35.3 30.9,55.9 57.4,55.9 14.1,0 24.4,-5 33.9,-9.7 l -14.7,13.9"/>
</svg>
